<svg xmlns="http://www.w3.org/2000/svg" width="645" height="343" fill="none" viewBox="0 0 645 343">
    <style>
        path { fill: #000; }
        @media (prefers-color-scheme: dark) {
        path { fill: #fff; }
        }
    </style>
    <path
        d="M538.893 0c46.164 0 74.483 33.207 89.068 66.567 14.697 33.615 19.343 74.541 16.016 108.374-3.671 37.313-13.044 80.823-32.809 114.098-10.031 16.886-23.601 32.589-41.901 42.741-18.851 10.457-40.658 13.855-64.363 9.134-28.774-5.731-46.813-26.181-57.628-47.048-6.223-12.007-10.693-25.276-13.941-38.542-3.305 10.496-6.289 20.761-9.628 30.867-3.582 10.843-8.226 23.448-15.385 33.512-8.07 11.345-21.147 21.759-40.054 21.759-16.298 0-25.51-11.099-29.257-17.877-3.558-6.435-5.046-13.382-5.832-18.398-1.659-10.588-1.775-23.954-1.308-37.614.951-27.854 4.673-64.498 8.284-99.743 3.42-33.392 6.74-65.581 8.031-90.507a153 153 0 0 0-4.615 8.47c-12.157 23.969-22.239 56.855-33.22 93.177-10.511 34.767-21.926 72.992-36.605 102.319-13.629 27.228-36.67 60.173-76.104 60.173-16.298 0-25.511-11.099-29.257-17.874-3.557-6.432-5.047-13.376-5.835-18.39-1.662-10.583-1.782-23.946-1.327-37.6.927-27.835 4.603-64.484 8.123-99.699 3.34-33.425 6.542-65.61 7.656-90.481a155 155 0 0 0-4.307 8.122c-11.869 23.994-21.663 56.893-32.379 93.241-10.256 34.789-21.436 73.029-35.96 102.389-13.484 27.256-36.413 60.292-75.918 60.292C12.732 341.462 0 328.722 0 313.006s12.732-28.455 28.438-28.455c3.15 0 12.037-2.534 24.947-28.63 11.869-23.993 21.662-56.893 32.378-93.24 10.256-34.789 21.437-73.03 35.961-102.389C135.208 33.035 158.136 0 197.642 0l1.508.033c15.36.658 24.119 11.277 27.749 17.84 3.556 6.433 5.047 13.377 5.834 18.39 1.662 10.583 1.783 23.947 1.328 37.6-.928 27.836-4.604 64.485-8.123 99.699-3.357 33.586-6.577 65.918-7.676 90.837a154 154 0 0 0 4.629-8.597c12.026-24.026 22.028-56.94 33.023-93.31 10.525-34.816 22.038-73.068 36.941-102.453C306.78 32.584 330.129 0 369.689 0l1.575.036c16.04.72 24.604 12.33 27.821 18.571 3.285 6.372 4.611 13.21 5.299 18.14 1.458 10.451 1.45 23.704.894 37.33-1.133 27.758-4.936 64.354-8.542 99.555a7971 7971 0 0 0-2.319 22.872 288 288 0 0 1 5.168-11.215c3.722-7.635 11.083-21.618 17.268-33.249a4595 4595 0 0 1 9.737-18.209c.091-.417.181-.86.286-1.326a302 302 0 0 1 3.638-14.43c3.258-11.736 8.407-27.707 15.924-43.953 7.407-16.01 17.805-33.815 32.209-47.965C493.382 11.681 513.492 0 538.893 0m0 56.91c-6.59 0-13.141 2.725-20.4 9.857-7.591 7.457-14.523 18.464-20.445 31.264-5.814 12.565-9.996 25.406-12.736 35.277a245 245 0 0 0-2.944 11.683 159 159 0 0 0-.539 2.487c-.06.99-.138 2.413-.219 4.215a400 400 0 0 0-.389 16.623c-.044 13.998.584 32.451 3.147 50.997 2.612 18.907 6.989 35.986 13.399 48.354 6.304 12.164 12.589 16.306 18.24 17.432 11.337 2.258 19.328.435 25.683-3.09 6.905-3.831 13.948-10.871 20.587-22.047 13.573-22.852 21.767-56.75 25.096-90.596 2.53-25.721-1.312-56.643-11.519-79.988-10.319-23.6-23.319-32.467-36.961-32.468" />
</svg>